# Blender 4.2.10 LTS
# www.blender.org
mtllib dundun.mtl
o 平面
v 0.000000 -0.150377 0.007529
v 0.000000 0.140418 0.015002
v 0.073079 -0.098098 -0.004951
v 0.129116 0.111010 -0.004951
v 0.000000 -0.156688 -0.006603
v 0.000000 0.145916 -0.004951
v 0.034472 -0.124877 -0.004951
v 0.123363 0.008021 -0.004951
v 0.113507 -0.045193 -0.004951
v 0.069119 0.134547 -0.004951
v 0.039738 -0.135239 0.007529
v 0.081489 -0.106500 0.007529
v 0.135686 0.006811 0.007529
v 0.142064 0.120121 0.007529
v 0.070025 0.148167 0.007529
v 0.000000 0.159927 0.007529
v 0.000000 -0.129290 0.015002
v 0.125112 -0.049845 0.007529
v 0.042849 -0.141033 -0.006603
v 0.085698 -0.111313 -0.006603
v 0.141321 0.005865 -0.006603
v 0.147867 0.123044 -0.006603
v 0.073933 0.152048 -0.006603
v 0.000000 0.164209 -0.006603
v 0.000000 -0.137471 -0.004951
v 0.130469 -0.052724 -0.006603
v 0.025187 -0.112989 0.017018
v 0.061395 -0.088065 0.017018
v 0.108390 0.010478 0.017018
v 0.113654 0.103990 0.017018
v 0.062142 0.124045 0.017018
v 0.099150 -0.039032 0.017018
v 0.010083 -0.039940 -0.047441
v 0.010083 -0.039940 -0.035844
v 0.010083 0.039940 -0.047441
v 0.010083 0.039940 -0.035844
v 0.000000 0.039940 -0.047441
v 0.000000 0.039940 -0.035844
v 0.000000 -0.039940 -0.047441
v 0.000000 -0.039940 -0.035844
v 0.010083 -0.028991 -0.047441
v 0.010083 0.028991 -0.047441
v 0.010083 0.028991 -0.035844
v 0.010083 -0.028991 -0.035844
v 0.000000 0.028991 -0.035844
v 0.000000 -0.028991 -0.035844
v 0.000000 0.028991 -0.047441
v 0.000000 -0.028991 -0.047441
v 0.000000 0.039940 -0.003759
v 0.010083 0.039940 -0.003759
v 0.010083 -0.028991 -0.003759
v 0.010083 -0.039940 -0.003759
v 0.000000 -0.039940 -0.003759
v 0.000000 -0.028991 -0.003759
v 0.010083 0.028991 -0.003759
v 0.000000 0.028991 -0.003759
v 0.030501 -0.122808 0.020092
v 0.069127 -0.096220 0.020092
v 0.119434 0.009143 0.020092
v 0.125190 0.111411 0.020092
v 0.065133 0.134793 0.020092
v 0.000000 0.146080 0.020092
v 0.000000 -0.135319 0.020092
v 0.109573 -0.043691 0.020092
v 0.027831 -0.117873 0.015002
v 0.065241 -0.092122 0.015002
v 0.113884 0.009814 0.015002
v 0.119392 0.107682 0.015002
v 0.063630 0.129392 0.015002
v 0.000000 0.134813 0.017018
v 0.000000 -0.123321 0.017018
v 0.104335 -0.041350 0.015002
v -0.073079 -0.098098 -0.004951
v -0.129116 0.111010 -0.004951
v -0.034472 -0.124877 -0.004951
v -0.123363 0.008021 -0.004951
v -0.113507 -0.045193 -0.004951
v -0.069119 0.134547 -0.004951
v -0.039738 -0.135239 0.007529
v -0.081489 -0.106500 0.007529
v -0.135686 0.006811 0.007529
v -0.142064 0.120121 0.007529
v -0.070025 0.148167 0.007529
v -0.125112 -0.049845 0.007529
v -0.042849 -0.141033 -0.006603
v -0.085698 -0.111313 -0.006603
v -0.141321 0.005865 -0.006603
v -0.147867 0.123044 -0.006603
v -0.073933 0.152048 -0.006603
v -0.130469 -0.052724 -0.006603
v -0.025187 -0.112989 0.017018
v -0.061395 -0.088065 0.017018
v -0.108390 0.010478 0.017018
v -0.113654 0.103990 0.017018
v -0.062142 0.124045 0.017018
v -0.099150 -0.039032 0.017018
v -0.010083 -0.039940 -0.047441
v -0.010083 -0.039940 -0.035844
v -0.010083 0.039940 -0.047441
v -0.010083 0.039940 -0.035844
v -0.010083 -0.028991 -0.047441
v -0.010083 0.028991 -0.047441
v -0.010083 0.028991 -0.035844
v -0.010083 -0.028991 -0.035844
v -0.010083 0.039940 -0.003759
v -0.010083 -0.028991 -0.003759
v -0.010083 -0.039940 -0.003759
v -0.010083 0.028991 -0.003759
v -0.030501 -0.122808 0.020092
v -0.069127 -0.096220 0.020092
v -0.119434 0.009143 0.020092
v -0.125190 0.111411 0.020092
v -0.065133 0.134793 0.020092
v -0.109573 -0.043691 0.020092
v -0.027831 -0.117873 0.015002
v -0.065241 -0.092122 0.015002
v -0.113884 0.009814 0.015002
v -0.119392 0.107682 0.015002
v -0.063630 0.129392 0.015002
v -0.104335 -0.041350 0.015002
vn -0.0000 -0.0000 1.0000
vn -0.9270 0.0520 -0.3715
vn -0.7278 0.5583 -0.3983
vn -0.3198 0.8577 -0.4026
vn -0.1567 -0.9429 -0.2940
vn -0.5172 0.7485 -0.4149
vn -0.3437 -0.8793 -0.3297
vn -0.9106 0.1693 -0.3771
vn -0.3573 0.5191 -0.7764
vn -0.6082 0.0342 -0.7931
vn -0.1130 -0.6629 -0.7401
vn -0.2400 0.6098 -0.7553
vn -0.5977 0.1116 -0.7939
vn -0.4881 0.3758 -0.7878
vn -0.2400 -0.6166 -0.7498
vn 0.0519 -0.0749 0.9958
vn 0.0910 -0.0051 0.9958
vn 0.0148 0.0899 0.9958
vn 0.0313 -0.0856 0.9958
vn 0.0896 -0.0166 0.9958
vn 0.0724 -0.0553 0.9958
vn 0.0333 0.0848 0.9958
vn -0.0000 1.0000 -0.0000
vn 1.0000 -0.0000 -0.0000
vn -0.0000 -0.0000 -1.0000
vn -0.0000 -1.0000 -0.0000
vn 0.3822 -0.5552 -0.7387
vn 0.6730 -0.0379 -0.7387
vn 0.1151 0.6641 -0.7387
vn 0.2558 -0.6236 -0.7387
vn 0.6626 -0.1237 -0.7387
vn 0.5341 -0.4112 -0.7387
vn 0.2445 0.6281 -0.7387
vn -0.1945 0.2825 -0.9394
vn -0.3424 0.0193 -0.9394
vn -0.0586 -0.3379 -0.9394
vn -0.1302 0.3173 -0.9394
vn -0.3371 0.0629 -0.9394
vn -0.2717 0.2092 -0.9394
vn -0.1244 -0.3196 -0.9394
vn 0.9270 0.0520 -0.3715
vn 0.7278 0.5583 -0.3983
vn 0.3198 0.8577 -0.4026
vn 0.1567 -0.9429 -0.2940
vn 0.5172 0.7485 -0.4149
vn 0.3437 -0.8793 -0.3297
vn 0.9106 0.1693 -0.3771
vn 0.3573 0.5191 -0.7764
vn 0.6082 0.0342 -0.7931
vn 0.1130 -0.6629 -0.7401
vn 0.2400 0.6098 -0.7553
vn 0.5977 0.1116 -0.7939
vn 0.4881 0.3758 -0.7878
vn 0.2400 -0.6166 -0.7498
vn -0.0519 -0.0749 0.9958
vn -0.0910 -0.0051 0.9958
vn -0.0148 0.0899 0.9958
vn -0.0313 -0.0856 0.9958
vn -0.0896 -0.0166 0.9958
vn -0.0724 -0.0553 0.9958
vn -0.0333 0.0848 0.9958
vn -1.0000 -0.0000 -0.0000
vn -0.3822 -0.5552 -0.7387
vn -0.6730 -0.0379 -0.7387
vn -0.1151 0.6641 -0.7387
vn -0.2558 -0.6236 -0.7387
vn -0.6626 -0.1237 -0.7387
vn -0.5341 -0.4112 -0.7387
vn -0.2445 0.6281 -0.7387
vn 0.1945 0.2825 -0.9394
vn 0.3424 0.0193 -0.9394
vn 0.0586 -0.3379 -0.9394
vn 0.1302 0.3173 -0.9394
vn 0.3371 0.0629 -0.9394
vn 0.2717 0.2092 -0.9394
vn 0.1244 -0.3196 -0.9394
vt 0.500000 0.059886
vt 0.691405 0.059990
vt 0.892760 0.085396
vt 0.946547 0.286070
vt 0.943166 0.507480
vt 0.939831 0.930319
vt 0.736275 0.944561
vt 0.500000 0.942994
vt 1.000000 1.000000
vt 1.000000 0.500000
vt 1.000000 0.250000
vt 1.000000 0.000000
vt 0.750000 0.000000
vt 0.500000 0.000000
vt 0.750000 1.000000
vt 0.500000 1.000000
vt 0.691652 0.059723
vt 0.893180 0.085056
vt 0.943413 0.507448
vt 0.940089 0.930609
vt 0.736334 0.944808
vt 0.500000 0.943239
vt 0.500000 0.059629
vt 0.946793 0.285913
vt 0.375000 0.375000
vt 0.625000 0.375000
vt 0.625000 0.500000
vt 0.375000 0.500000
vt 0.375000 0.666667
vt 0.625000 0.666667
vt 0.625000 0.750000
vt 0.375000 0.750000
vt 0.250000 0.666667
vt 0.250000 0.750000
vt 0.625000 0.875000
vt 0.375000 0.875000
vt 0.625000 0.583333
vt 0.750000 0.583333
vt 0.750000 0.666667
vt 0.250000 0.500000
vt 0.375000 0.583333
vt 0.250000 0.583333
vt 0.750000 0.750000
vt 0.750000 0.500000
vt 0.500000 0.097306
vt 0.500000 0.907862
vt 0.725276 0.909089
vt 0.902378 0.890393
vt 0.906419 0.512101
vt 0.908071 0.309309
vt 0.833784 0.132155
vt 0.648821 0.099692
vt 0.669556 0.079825
vt 0.862671 0.109208
vt 0.924947 0.509769
vt 0.921190 0.910161
vt 0.730736 0.926954
vt 0.500000 0.925460
vt 0.500000 0.078563
vt 0.927661 0.297656
s 0
usemtl 材质
f 25/1/1 7/2/1 3/3/1 9/4/1 8/5/1 4/6/1 10/7/1 6/8/1
f 14/9/2 22/9/2 21/10/2 13/10/2
f 18/11/3 26/11/3 20/12/3 12/12/3
f 11/13/4 19/13/4 5/14/4 1/14/4
f 23/15/5 15/15/5 16/16/5 24/16/5
f 19/13/6 11/13/6 12/12/6 20/12/6
f 22/9/7 14/9/7 15/15/7 23/15/7
f 26/11/8 18/11/8 13/10/8 21/10/8
f 57/17/9 58/18/9 12/12/9 11/13/9
f 59/19/10 60/20/10 14/9/10 13/10/10
f 61/21/11 62/22/11 16/16/11 15/15/11
f 63/23/12 57/17/12 11/13/12 1/14/12
f 64/24/13 59/19/13 13/10/13 18/11/13
f 58/18/14 64/24/14 18/11/14 12/12/14
f 60/20/15 61/21/15 15/15/15 14/9/15
f 3/3/16 7/2/16 19/13/16 20/12/16
f 4/6/17 8/5/17 21/10/17 22/9/17
f 6/8/18 10/7/18 23/15/18 24/16/18
f 7/2/19 25/1/19 5/14/19 19/13/19
f 8/5/20 9/4/20 26/11/20 21/10/20
f 9/4/21 3/3/21 20/12/21 26/11/21
f 10/7/22 4/6/22 22/9/22 23/15/22
f 37/25/23 38/26/23 36/27/23 35/28/23
f 41/29/24 44/30/24 34/31/24 33/32/24
f 48/33/25 41/29/25 33/32/25 39/34/25
f 34/31/24 44/30/24 51/30/24 52/31/24
f 33/32/26 34/31/26 40/35/26 39/36/26
f 43/37/24 36/27/24 50/27/24 55/37/24
f 43/37/1 45/38/1 46/39/1 44/30/1
f 37/40/25 35/28/25 42/41/25 47/42/25
f 47/42/25 42/41/25 41/29/25 48/33/25
f 35/28/24 36/27/24 43/37/24 42/41/24
f 42/41/24 43/37/24 44/30/24 41/29/24
f 51/30/1 54/39/1 53/43/1 52/31/1
f 50/27/1 49/44/1 56/38/1 55/37/1
f 44/30/23 46/39/23 54/39/23 51/30/23
f 36/27/23 38/26/23 49/26/23 50/27/23
f 45/38/26 43/37/26 55/37/26 56/38/26
f 40/35/26 34/31/26 52/31/26 53/35/26
f 71/45/25 70/46/25 31/47/25 30/48/25 29/49/25 32/50/25 28/51/25 27/52/25
f 65/53/27 66/54/27 58/18/27 57/17/27
f 67/55/28 68/56/28 60/20/28 59/19/28
f 69/57/29 2/58/29 62/22/29 61/21/29
f 17/59/30 65/53/30 57/17/30 63/23/30
f 72/60/31 67/55/31 59/19/31 64/24/31
f 66/54/32 72/60/32 64/24/32 58/18/32
f 68/56/33 69/57/33 61/21/33 60/20/33
f 27/52/34 28/51/34 66/54/34 65/53/34
f 29/49/35 30/48/35 68/56/35 67/55/35
f 31/47/36 70/46/36 2/58/36 69/57/36
f 71/45/37 27/52/37 65/53/37 17/59/37
f 32/50/38 29/49/38 67/55/38 72/60/38
f 28/51/39 32/50/39 72/60/39 66/54/39
f 30/48/40 31/47/40 69/57/40 68/56/40
f 25/1/1 6/8/1 78/7/1 74/6/1 76/5/1 77/4/1 73/3/1 75/2/1
f 82/9/41 81/10/41 87/10/41 88/9/41
f 84/11/42 80/12/42 86/12/42 90/11/42
f 79/13/43 1/14/43 5/14/43 85/13/43
f 89/15/44 24/16/44 16/16/44 83/15/44
f 85/13/45 86/12/45 80/12/45 79/13/45
f 88/9/46 89/15/46 83/15/46 82/9/46
f 90/11/47 87/10/47 81/10/47 84/11/47
f 109/17/48 79/13/48 80/12/48 110/18/48
f 111/19/49 81/10/49 82/9/49 112/20/49
f 113/21/50 83/15/50 16/16/50 62/22/50
f 63/23/51 1/14/51 79/13/51 109/17/51
f 114/24/52 84/11/52 81/10/52 111/19/52
f 110/18/53 80/12/53 84/11/53 114/24/53
f 112/20/54 82/9/54 83/15/54 113/21/54
f 73/3/55 86/12/55 85/13/55 75/2/55
f 74/6/56 88/9/56 87/10/56 76/5/56
f 6/8/57 24/16/57 89/15/57 78/7/57
f 75/2/58 85/13/58 5/14/58 25/1/58
f 76/5/59 87/10/59 90/11/59 77/4/59
f 77/4/60 90/11/60 86/12/60 73/3/60
f 78/7/61 89/15/61 88/9/61 74/6/61
f 37/25/23 99/28/23 100/27/23 38/26/23
f 101/29/62 97/32/62 98/31/62 104/30/62
f 48/33/25 39/34/25 97/32/25 101/29/25
f 98/31/62 107/31/62 106/30/62 104/30/62
f 97/32/26 39/36/26 40/35/26 98/31/26
f 103/37/62 108/37/62 105/27/62 100/27/62
f 103/37/1 104/30/1 46/39/1 45/38/1
f 37/40/25 47/42/25 102/41/25 99/28/25
f 47/42/25 48/33/25 101/29/25 102/41/25
f 99/28/62 102/41/62 103/37/62 100/27/62
f 102/41/62 101/29/62 104/30/62 103/37/62
f 106/30/1 107/31/1 53/43/1 54/39/1
f 105/27/1 108/37/1 56/38/1 49/44/1
f 104/30/23 106/30/23 54/39/23 46/39/23
f 100/27/23 105/27/23 49/26/23 38/26/23
f 45/38/26 56/38/26 108/37/26 103/37/26
f 40/35/26 53/35/26 107/31/26 98/31/26
f 71/45/25 91/52/25 92/51/25 96/50/25 93/49/25 94/48/25 95/47/25 70/46/25
f 115/53/63 109/17/63 110/18/63 116/54/63
f 117/55/64 111/19/64 112/20/64 118/56/64
f 119/57/65 113/21/65 62/22/65 2/58/65
f 17/59/66 63/23/66 109/17/66 115/53/66
f 120/60/67 114/24/67 111/19/67 117/55/67
f 116/54/68 110/18/68 114/24/68 120/60/68
f 118/56/69 112/20/69 113/21/69 119/57/69
f 91/52/70 115/53/70 116/54/70 92/51/70
f 93/49/71 117/55/71 118/56/71 94/48/71
f 95/47/72 119/57/72 2/58/72 70/46/72
f 71/45/73 17/59/73 115/53/73 91/52/73
f 96/50/74 120/60/74 117/55/74 93/49/74
f 92/51/75 116/54/75 120/60/75 96/50/75
f 94/48/76 118/56/76 119/57/76 95/47/76
